<svg width="30" height="40" viewBox="0 0 30 40" fill="none" xmlns="http://www.w3.org/2000/svg">
<path d="M15 12.5V10M15 12.5C14.337 12.5 13.7011 12.7634 13.2322 13.2322C12.7634 13.7011 12.5 14.337 12.5 15C12.5 15.663 12.7634 16.2989 13.2322 16.7678C13.7011 17.2366 14.337 17.5 15 17.5M15 12.5C15.663 12.5 16.2989 12.7634 16.7678 13.2322C17.2366 13.7011 17.5 14.337 17.5 15C17.5 15.663 17.2366 16.2989 16.7678 16.7678C16.2989 17.2366 15.663 17.5 15 17.5M15 17.5V30M7.5 27.5C8.16304 27.5 8.79893 27.2366 9.26777 26.7678C9.73661 26.2989 10 25.663 10 25C10 24.337 9.73661 23.7011 9.26777 23.2322C8.79893 22.7634 8.16304 22.5 7.5 22.5M7.5 27.5C6.83696 27.5 6.20107 27.2366 5.73223 26.7678C5.26339 26.2989 5 25.663 5 25C5 24.337 5.26339 23.7011 5.73223 23.2322C6.20107 22.7634 6.83696 22.5 7.5 22.5M7.5 27.5V30M7.5 22.5V10M22.5 27.5C23.163 27.5 23.7989 27.2366 24.2678 26.7678C24.7366 26.2989 25 25.663 25 25C25 24.337 24.7366 23.7011 24.2678 23.2322C23.7989 22.7634 23.163 22.5 22.5 22.5M22.5 27.5C21.837 27.5 21.2011 27.2366 20.7322 26.7678C20.2634 26.2989 20 25.663 20 25C20 24.337 20.2634 23.7011 20.7322 23.2322C21.2011 22.7634 21.837 22.5 22.5 22.5M22.5 27.5V30M22.5 22.5V10" stroke="#408990" stroke-width="2" stroke-linecap="round" stroke-linejoin="round"/>
</svg>
