<svg width="25" height="28" viewBox="0 0 25 28" fill="none" xmlns="http://www.w3.org/2000/svg">
<path d="M16.5833 20.8333H23.6667L21.6762 18.8429C21.409 18.5756 21.1969 18.2582 21.0523 17.9089C20.9077 17.5596 20.8333 17.1852 20.8333 16.8072V12.3333C20.8335 10.5752 20.2887 8.86015 19.2739 7.42442C18.2591 5.9887 16.8242 4.90287 15.1667 4.31642V3.83333C15.1667 3.08189 14.8682 2.36122 14.3368 1.82986C13.8054 1.29851 13.0848 1 12.3333 1C11.5819 1 10.8612 1.29851 10.3299 1.82986C9.79851 2.36122 9.5 3.08189 9.5 3.83333V4.31642C6.19917 5.48375 3.83333 8.633 3.83333 12.3333V16.8086C3.83333 17.5708 3.53017 18.3032 2.99042 18.8429L1 20.8333H8.08333M16.5833 20.8333V22.25C16.5833 23.3772 16.1356 24.4582 15.3385 25.2552C14.5415 26.0522 13.4605 26.5 12.3333 26.5C11.2062 26.5 10.1252 26.0522 9.32813 25.2552C8.5311 24.4582 8.08333 23.3772 8.08333 22.25V20.8333M16.5833 20.8333H8.08333" stroke="#408990" stroke-width="2" stroke-linecap="round" stroke-linejoin="round"/>
</svg>
